<?xml version="1.0" encoding="UTF-8" standalone="no"?>
<svg width="400" height="300" xmlns="http://www.w3.org/2000/svg">
  <rect width="400" height="300" fill="#37474F"/>
  
  <!-- PDF Document Icon -->
  <rect x="100" y="60" width="200" height="170" rx="5" ry="5" fill="#ECEFF1"/>
  <path d="M100 60 L250 60 L300 110 L300 230 L100 230 Z" fill="#ECEFF1"/>
  <path d="M250 60 L250 110 L300 110 Z" fill="#CFD8DC"/>
  
  <!-- Text lines representing content -->
  <rect x="120" y="130" width="160" height="8" rx="2" ry="2" fill="#B0BEC5"/>
  <rect x="120" y="150" width="160" height="8" rx="2" ry="2" fill="#B0BEC5"/>
  <rect x="120" y="170" width="120" height="8" rx="2" ry="2" fill="#B0BEC5"/>
  <rect x="120" y="190" width="140" height="8" rx="2" ry="2" fill="#B0BEC5"/>
  
  <!-- PDF Label -->
  <rect x="160" y="80" width="80" height="30" rx="3" ry="3" fill="#F44336"/>
  <text x="180" y="100" font-family="Arial, sans-serif" font-size="16" font-weight="bold" fill="white">PDF</text>
  
  <text x="150" y="250" font-family="Arial, sans-serif" font-size="14" fill="#CFD8DC">Document</text>
</svg>