<?xml version="1.0" encoding="UTF-8" standalone="no"?>
<svg width="400" height="300" xmlns="http://www.w3.org/2000/svg">
  <rect width="400" height="300" fill="#37474F"/>
  <rect x="50" y="60" width="300" height="180" rx="5" ry="5" fill="#546E7A"/>
  <circle cx="200" cy="120" r="40" fill="#78909C"/>
  <path d="M160 170 L240 170 Q260 170 260 190 L260 200 Q260 220 240 220 L160 220 Q140 220 140 200 L140 190 Q140 170 160 170 Z" fill="#78909C"/>
  <rect x="100" y="50" width="200" height="20" rx="5" ry="5" fill="#78909C"/>
  <rect x="80" y="80" width="30" height="10" rx="2" ry="2" fill="#90A4AE"/>
  <rect x="80" y="100" width="50" height="10" rx="2" ry="2" fill="#90A4AE"/>
  <rect x="80" y="120" width="40" height="10" rx="2" ry="2" fill="#90A4AE"/>
  <rect x="80" y="140" width="60" height="10" rx="2" ry="2" fill="#90A4AE"/>
  <rect x="80" y="160" width="35" height="10" rx="2" ry="2" fill="#90A4AE"/>
  <text x="130" y="250" font-family="Arial, sans-serif" font-size="14" fill="#CFD8DC">Web Content</text>
</svg>